# xmcd CD database file
#
# Track frame offsets:
#	150
#	20117
#	37912
#	59355
#	81665
#	102172
#	128157
#	150600
#	169985
#	190875
#	213975
#	240365
#	268502
#	299062
#
# Disc length: 4268 seconds
#
# Revision: 2
# Processed by: cddbd v1.5.1PL2 Copyright (c) Steve Scherf et al.
# Submitted via: jetAudio 5
#
DISCID=ca10aa0e
DTITLE=Jon B - Bonafide
DYEAR=1900
DGENRE=R&B
TTITLE0=Bonafide
TTITLE1=Simple Melody
TTITLE2=Love Is Candi
TTITLE3=Mystery 4 Two
TTITLE4=Someone To Love
TTITLE5=Time After Time
TTITLE6=Overflow
TTITLE7=Pretty Girl
TTITLE8=Pants Off
TTITLE9=Isn't It Scary
TTITLE10=Burning 4 You
TTITLE11=Gone Before Light
TTITLE12=Love Don't Do
TTITLE13=Butta Hips
EXTD=
EXTT0=
EXTT1=
EXTT2=
EXTT3=
EXTT4=
EXTT5=
EXTT6=
EXTT7=
EXTT8=
EXTT9=
EXTT10=
EXTT11=
EXTT12=
EXTT13=
PLAYORDER=
